<svg xmlns="http://www.w3.org/2000/svg" viewBox="0 0 512 512"><defs><linearGradient id="g" x1="0" y1="0" x2="1" y2="1"><stop offset="0" stop-color="#155eab"/><stop offset="1" stop-color="#1d9adc"/></linearGradient><clipPath id="t"><rect width="512" height="512" rx="112"/></clipPath></defs><rect width="512" height="512" rx="112" fill="url(#g)"/><g clip-path="url(#t)"><path d="M139.9 316.5C60.5 396.5 41.9 445.6 -53.3 453.6L-86.8 471.4C35.4 421.1 52.1 387.1 139.9 316.5Z" fill="#fff"/><path d="M152.3 110.6L148.7 118.5L251.7 194.6L258.4 203.7L173.6 273.9L111.5 260.5L154.1 292.4L173.6 346.2L178.2 288.9L184.3 281.9L276.6 230.3L281.9 235.6L318.6 363.4L324.5 363.4L329.8 340.4L342.1 185.9L400.8 136.7L411.5 123.8L412.5 114.9L386.4 122L326.3 157.4Z" fill="#fff"/></g></svg>