<svg xmlns="http://www.w3.org/2000/svg" viewBox="0 0 800 600" preserveAspectRatio="xMidYMid slice" role="img" aria-label="paris postcard illustration"><defs><linearGradient id="s" x1="0" y1="0" x2="0" y2="1"><stop offset="0" stop-color="#4a5a8c"/><stop offset="1" stop-color="#f0b9a8"/></linearGradient><radialGradient id="g" cx="0.51" cy="0.39" r="0.5"><stop offset="0" stop-color="#ffe3d4" stop-opacity="0.9"/><stop offset="1" stop-color="#ffe3d4" stop-opacity="0"/></radialGradient></defs><rect width="800" height="600" fill="url(#s)"/><rect width="800" height="600" fill="url(#g)"/><circle cx="411" cy="232" r="46" fill="#ffe3d4"/><ellipse cx="473" cy="97" rx="88" ry="15" fill="#fff" opacity="0.28"/><ellipse cx="296" cy="110" rx="113" ry="17" fill="#fff" opacity="0.28"/><ellipse cx="720" cy="66" rx="88" ry="13" fill="#fff" opacity="0.28"/><path d="M0 600 L0 347 L0 347 L133 352 L267 329 L400 351 L533 304 L667 370 L800 303 L800 600 Z" fill="#5d6b9b" opacity="0.7"/><rect x="0" y="279" width="62" height="391" fill="#47548a"/><rect x="66" y="345" width="34" height="325" fill="#47548a"/><rect x="104" y="363" width="29" height="307" fill="#47548a"/><rect x="118" y="333" width="4" height="30" fill="#47548a"/><rect x="137" y="393" width="66" height="277" fill="#47548a"/><rect x="207" y="274" width="56" height="396" fill="#47548a"/><rect x="267" y="318" width="64" height="352" fill="#47548a"/><rect x="335" y="342" width="38" height="328" fill="#47548a"/><rect x="377" y="299" width="43" height="371" fill="#47548a"/><rect x="424" y="343" width="38" height="327" fill="#47548a"/><rect x="466" y="364" width="29" height="306" fill="#47548a"/><rect x="499" y="326" width="57" height="344" fill="#47548a"/><rect x="526" y="296" width="4" height="30" fill="#47548a"/><rect x="560" y="306" width="35" height="364" fill="#47548a"/><rect x="599" y="381" width="38" height="289" fill="#47548a"/><rect x="641" y="285" width="47" height="385" fill="#47548a"/><rect x="692" y="410" width="44" height="260" fill="#47548a"/><rect x="713" y="380" width="4" height="30" fill="#47548a"/><rect x="740" y="389" width="64" height="281" fill="#47548a"/><rect x="0" y="423" width="29" height="297" fill="#2e3a6b"/><rect x="33" y="322" width="29" height="398" fill="#2e3a6b"/><rect x="66" y="387" width="37" height="333" fill="#2e3a6b"/><rect x="107" y="392" width="52" height="328" fill="#2e3a6b"/><rect x="132" y="362" width="4" height="30" fill="#2e3a6b"/><rect x="163" y="458" width="53" height="262" fill="#2e3a6b"/><rect x="220" y="350" width="39" height="370" fill="#2e3a6b"/><rect x="238" y="320" width="4" height="30" fill="#2e3a6b"/><rect x="263" y="394" width="46" height="326" fill="#2e3a6b"/><rect x="285" y="364" width="4" height="30" fill="#2e3a6b"/><rect x="313" y="320" width="27" height="400" fill="#2e3a6b"/><rect x="344" y="379" width="60" height="341" fill="#2e3a6b"/><rect x="373" y="349" width="4" height="30" fill="#2e3a6b"/><rect x="408" y="447" width="42" height="273" fill="#2e3a6b"/><rect x="454" y="422" width="52" height="298" fill="#2e3a6b"/><rect x="479" y="392" width="4" height="30" fill="#2e3a6b"/><rect x="510" y="443" width="52" height="277" fill="#2e3a6b"/><rect x="535" y="413" width="4" height="30" fill="#2e3a6b"/><rect x="566" y="410" width="38" height="310" fill="#2e3a6b"/><rect x="608" y="395" width="55" height="325" fill="#2e3a6b"/><rect x="667" y="323" width="57" height="397" fill="#2e3a6b"/><rect x="728" y="330" width="60" height="390" fill="#2e3a6b"/><rect x="792" y="429" width="31" height="291" fill="#2e3a6b"/><g transform="translate(700 40) rotate(8)"><rect x="-36" y="-26" width="72" height="88" rx="6" fill="#fff" opacity="0.9"/><rect x="-28" y="-18" width="56" height="56" rx="4" fill="#ef6a4f"/><circle cx="0" cy="10" r="12" fill="#fff" opacity="0.8"/></g></svg>